<svg xmlns="http://www.w3.org/2000/svg" width="1600" height="1000" viewBox="0 0 1600 1000" role="img"><defs><marker id="arrow" markerWidth="10" markerHeight="10" refX="9" refY="3" orient="auto"><path d="M0,0 L0,6 L9,3 z" fill="#2a6f68"/></marker><filter id="shadow"><feDropShadow dx="0" dy="8" stdDeviation="12" flood-opacity=".12"/></filter></defs><rect width="1600" height="1000" fill="#f8faf9"/><rect x="50" y="42" width="1500" height="136" rx="22" fill="#0d2425"/><text x="88" y="95" font-size="40" font-weight="760" fill="#ffffff">AI Agent Observability Is Not Logging</text><text x="90" y="153" font-size="19" font-weight="650" fill="#9fe1d5">REFERENCE ARCHITECTURE · CONTROL AND EVIDENCE PATH</text><line x1="480" y1="365" x2="540" y2="365" stroke="#2a6f68" stroke-width="5" marker-end="url(#arrow)"/><rect x="90" y="250" width="390" height="230" rx="24" fill="#dff4ef" stroke="#b7cbc7" stroke-width="2" filter="url(#shadow)"/><circle cx="138" cy="298" r="25" fill="#0d2425"/><text x="129" y="307" font-size="24" font-weight="750" fill="#fff">1</text><text x="178" y="298" font-size="27" font-weight="750" fill="#0d2425">Instrument</text><text x="125" y="382" font-size="21" font-weight="520" fill="#34514e">Traces, metrics, logs and events</text><line x1="955" y1="365" x2="1015" y2="365" stroke="#2a6f68" stroke-width="5" marker-end="url(#arrow)"/><rect x="565" y="250" width="390" height="230" rx="24" fill="#e8efff" stroke="#b7cbc7" stroke-width="2" filter="url(#shadow)"/><circle cx="613" cy="298" r="25" fill="#0d2425"/><text x="604" y="307" font-size="24" font-weight="750" fill="#fff">2</text><text x="653" y="298" font-size="27" font-weight="750" fill="#0d2425">Correlate</text><text x="600" y="382" font-size="21" font-weight="520" fill="#34514e">Stable action, workflow and</text><text x="600" y="411" font-size="21" font-weight="520" fill="#34514e">resource IDs</text><path d="M 1235 490 C 1235 550, 285 520, 285 572" fill="none" stroke="#2a6f68" stroke-width="5" marker-end="url(#arrow)"/><rect x="1040" y="250" width="390" height="230" rx="24" fill="#fff1d6" stroke="#b7cbc7" stroke-width="2" filter="url(#shadow)"/><circle cx="1088" cy="298" r="25" fill="#0d2425"/><text x="1079" y="307" font-size="24" font-weight="750" fill="#fff">3</text><text x="1128" y="298" font-size="27" font-weight="750" fill="#0d2425">Enrich</text><text x="1075" y="382" font-size="21" font-weight="520" fill="#34514e">Policy, authority, cost and risk</text><text x="1075" y="411" font-size="21" font-weight="520" fill="#34514e">context</text><line x1="480" y1="705" x2="540" y2="705" stroke="#2a6f68" stroke-width="5" marker-end="url(#arrow)"/><rect x="90" y="590" width="390" height="230" rx="24" fill="#f2e9ff" stroke="#b7cbc7" stroke-width="2" filter="url(#shadow)"/><circle cx="138" cy="638" r="25" fill="#0d2425"/><text x="129" y="647" font-size="24" font-weight="750" fill="#fff">4</text><text x="178" y="638" font-size="27" font-weight="750" fill="#0d2425">Observe</text><text x="125" y="722" font-size="21" font-weight="520" fill="#34514e">Authoritative business</text><text x="125" y="751" font-size="21" font-weight="520" fill="#34514e">postconditions</text><line x1="955" y1="705" x2="1015" y2="705" stroke="#2a6f68" stroke-width="5" marker-end="url(#arrow)"/><rect x="565" y="590" width="390" height="230" rx="24" fill="#e7f2fa" stroke="#b7cbc7" stroke-width="2" filter="url(#shadow)"/><circle cx="613" cy="638" r="25" fill="#0d2425"/><text x="604" y="647" font-size="24" font-weight="750" fill="#fff">5</text><text x="653" y="638" font-size="27" font-weight="750" fill="#0d2425">Aggregate</text><text x="600" y="722" font-size="21" font-weight="520" fill="#34514e">Effect SLOs and tail distributions</text><rect x="1040" y="590" width="390" height="230" rx="24" fill="#ffe7e2" stroke="#b7cbc7" stroke-width="2" filter="url(#shadow)"/><circle cx="1088" cy="638" r="25" fill="#0d2425"/><text x="1079" y="647" font-size="24" font-weight="750" fill="#fff">6</text><text x="1128" y="638" font-size="27" font-weight="750" fill="#0d2425">Investigate</text><text x="1075" y="722" font-size="21" font-weight="520" fill="#34514e">Causal reconstruction and recovery</text><rect x="90" y="880" width="1410" height="70" rx="18" fill="#ffffff" stroke="#cad8d5"/><text x="125" y="925" font-size="23" font-weight="650" fill="#0d2425">DESIGN RULE</text><text x="320" y="924" font-size="22" font-weight="580" fill="#234b47">Every material span must resolve to an action; every material action must resolve to an</text><text x="320" y="950" font-size="22" font-weight="580" fill="#234b47">observed effect or owned ambiguity.</text></svg>